<?xml version="1.0" standalone="no"?><!DOCTYPE svg PUBLIC "-//W3C//DTD SVG 1.1//EN" "http://www.w3.org/Graphics/SVG/1.1/DTD/svg11.dtd"><svg t="1523272088134" class="icon" style="" viewBox="0 0 1024 1024" version="1.1" xmlns="http://www.w3.org/2000/svg" p-id="3494" xmlns:xlink="http://www.w3.org/1999/xlink" width="200" height="200"><defs><style type="text/css"></style></defs><path d="M512 339.603605C416.927691 339.603605 339.588255 416.944064 339.588255 512s77.339436 172.395372 172.411745 172.395372c18.889209 0 37.434587-3.01773 55.166437-8.990768 15.074324-5.097088 23.173792-21.453614 18.075681-36.527938-5.066389-15.089673-21.422915-23.11137-36.527938-18.107403-11.758812 3.971451-24.112164 5.988388-36.715203 5.988388-63.266929 0-114.743324-51.476395-114.743324-114.758674s51.476395-114.758674 114.743324-114.758674 114.743324 51.476395 114.743324 114.758674c0 8.475022-0.87595 16.778128-2.689249 24.87862-0.844228 3.90903-1.907443 7.708566-3.158946 11.44568-5.003967 15.105023 3.158946 31.414477 18.263969 36.433794 15.199167 5.003967 31.429827-3.174296 36.465516-18.263969 1.876744-5.676279 3.502777-11.509125 4.753257-17.263176 2.65855-12.009522 4.033873-24.550139 4.033873-37.230949C684.410722 416.944064 607.071286 339.603605 512 339.603605z" p-id="3495" fill="#ffffff"></path><path d="M950.84691 435.260222c-2.282996-13.088086-13.19758-22.923082-26.457582-23.814382-47.879474-3.206018-90.724281-29.850865-114.64918-71.272253-23.955598-41.484833-25.550932-91.991134-4.284583-135.102001 5.879917-11.915377 2.877537-26.301016-7.317663-34.83846-39.185464-32.868595-84.001159-58.653865-133.225257-76.667124-12.508895-4.613064-26.488281-0.01535-33.869389 11.024078-26.707268 39.889499-71.209832 63.703881-119.058606 63.703881-47.817052 0-92.319615-23.814382-119.026884-63.703881-7.411807-11.039427-21.391193-15.60542-33.869389-11.024078-49.193399 17.997909-94.039793 43.798529-133.25698 76.651774-10.1952 8.537444-13.228279 22.939455-7.317663 34.854832 21.297049 43.110867 19.702738 93.617168-4.252861 135.11735-23.923876 41.406039-66.768683 68.050885-114.64918 71.256904-13.260002 0.8913-24.174586 10.727319-26.457582 23.814382-4.722558 27.161616-7.036253 52.258201-7.036253 76.729545 0 24.518417 2.314719 49.678446 7.036253 76.901461 2.282996 13.103436 13.19758 22.939455 26.457582 23.830755 47.879474 3.206018 90.724281 29.850865 114.64918 71.241554 23.923876 41.46846 25.550932 91.944062 4.315282 135.054929-5.848195 11.915377-2.815115 26.301016 7.349385 34.82311 39.247886 32.853245 84.063581 58.637492 133.287679 76.620052 12.353352 4.550643 26.39516 0.01535 33.806967-11.008728 26.707268-39.811728 71.179133-63.579037 118.964462-63.579037 47.817052 0 92.287893 23.768333 118.996185 63.579037 5.472642 8.146541 14.542204 12.759605 23.923876 12.759605 3.315512 0 6.661723-0.562818 9.882068-1.750877 49.225121-17.98256 94.039793-43.767829 133.287679-76.620052 10.163477-8.522094 13.19758-22.907733 7.349385-34.82311-21.234627-43.110867-19.608593-93.586468 4.315282-135.054929 23.923876-41.406039 66.768683-68.035536 114.617457-71.241554 13.228279-0.8913 24.174586-10.710946 26.457582-23.783683 4.753257-27.176966 7.067976-52.335972 7.067976-76.948533C957.883163 487.518423 955.568445 462.420815 950.84691 435.260222zM897.18064 558.133713c-57.481156 10.617825-107.768469 45.753043-137.353274 97.010451l0 0.01535c-29.616528 51.28913-34.870182 112.413256-15.292288 167.564343-24.518417 18.294668-51.257407 33.650401-79.935564 45.847188-37.934984-44.408419-93.445252-70.333882-152.614863-70.333882-59.138912 0-114.64918 25.925463-152.584164 70.333882-28.678156-12.196787-55.417147-27.552519-79.935564-45.847188 19.576871-55.151088 14.323217-116.275213-15.293311-167.579693-29.584806-51.257407-79.873142-86.377276-137.384997-97.010451-2.032286-16.043395-3.00238-31.273261-3.00238-46.143946 0-14.808264 0.969071-29.975708 3.00238-45.956681 57.511855-10.633175 107.800191-45.753043 137.384997-97.026824 29.647227-51.351552 34.900881-112.52275 15.229866-167.704536 24.487717-18.279319 51.226708-33.635051 79.873142-45.847188 37.966707 44.502563 93.507674 70.475098 152.709007 70.475098 59.232033 0 114.774023-25.972535 152.74073-70.475098 28.646434 12.212136 55.385425 27.567869 79.84142 45.847188-19.640316 55.181787-14.385639 116.352985 15.261589 167.689187 29.584806 51.28913 79.873142 86.408999 137.384997 97.042173 2.033309 15.980973 3.00238 31.148417 3.00238 45.956681C900.214742 526.891152 899.213949 542.122041 897.18064 558.133713z" p-id="3496" fill="#ffffff"></path></svg>